HIERARCHY
ROOT Hips
{
  OFFSET 5.84602e-005 68.8428 3.50346
  CHANNELS 6 Xposition Yposition Zposition Zrotation Xrotation Yrotation
  JOINT Spine
  {
    OFFSET 0 8.597 -4.6522
    CHANNELS 3 Zrotation Xrotation Yrotation
    JOINT Spine1
    {
      OFFSET 0 7.8454 0.4098
      CHANNELS 3 Zrotation Xrotation Yrotation
      JOINT Spine2
      {
        OFFSET 0 9.7078 -2.1609
        CHANNELS 3 Zrotation Xrotation Yrotation
        JOINT Neck
        {
          OFFSET 0 21.8761 -0.4549
          CHANNELS 3 Zrotation Xrotation Yrotation
          JOINT Head
          {
            OFFSET 0 12.3537 3.3602
            CHANNELS 3 Zrotation Xrotation Yrotation
            End Site
            {
              OFFSET 0.0001 18.9506 0.5657
            }
          }
        }
        JOINT LeftShoulder
        {
          OFFSET 2.2086 21.1115 7.2329
          CHANNELS 3 Zrotation Xrotation Yrotation
          JOINT LeftArm
          {
            OFFSET 13.1193 3.0282 -4.8998
            CHANNELS 3 Zrotation Xrotation Yrotation
            JOINT LeftForeArm
            {
              OFFSET 27.4081 -0.0973053 -0.2375
              CHANNELS 3 Zrotation Xrotation Yrotation
              JOINT LeftHand
              {
                OFFSET 22.8641 0.0662994 -0.1369
                CHANNELS 3 Zrotation Xrotation Yrotation
                JOINT LeftHandIndex1
                {
                  OFFSET 8.8614 0.775009 2.4612
                  CHANNELS 3 Zrotation Xrotation Yrotation
                  JOINT LeftHandIndex2
                  {
                    OFFSET 3.3146 -0.808304 0.5841
                    CHANNELS 3 Zrotation Xrotation Yrotation
                    JOINT LeftHandIndex3
                    {
                      OFFSET 2.2628 -0.552002 0.3989
                      CHANNELS 3 Zrotation Xrotation Yrotation
                      End Site
                      {
                        OFFSET 1.6102 -0.4807 0.2612
                      }
                    }
                  }
                }
                JOINT LeftHandMiddle1
                {
                  OFFSET 8.9937 0.895004 0.2143
                  CHANNELS 3 Zrotation Xrotation Yrotation
                  JOINT LeftHandMiddle2
                  {
                    OFFSET 4.0984 0.0113983 -0.0242
                    CHANNELS 3 Zrotation Xrotation Yrotation
                    JOINT LeftHandMiddle3
                    {
                      OFFSET 2.2716 0.00689697 -0.0138001
                      CHANNELS 3 Zrotation Xrotation Yrotation
                      End Site
                      {
                        OFFSET 2.0404 -0.1441 0.0027
                      }
                    }
                  }
                }
                JOINT LeftHandRing1
                {
                  OFFSET 8.5234 0.597198 -2.0164
                  CHANNELS 3 Zrotation Xrotation Yrotation
                  JOINT LeftHandRing2
                  {
                    OFFSET 3.7188 -0.188293 -0.2328
                    CHANNELS 3 Zrotation Xrotation Yrotation
                    JOINT LeftHandRing3
                    {
                      OFFSET 2.1191 -0.106598 -0.1332
                      CHANNELS 3 Zrotation Xrotation Yrotation
                      End Site
                      {
                        OFFSET 1.8737 -0.2304 -0.0886
                      }
                    }
                  }
                }
                JOINT LeftHandPinky1
                {
                  OFFSET 7.9094 -0.601089 -3.4825
                  CHANNELS 3 Zrotation Xrotation Yrotation
                  JOINT LeftHandPinky2
                  {
                    OFFSET 2.2874 -0.477005 -0.6314
                    CHANNELS 3 Zrotation Xrotation Yrotation
                    JOINT LeftHandPinky3
                    {
                      OFFSET 1.6774 -0.349396 -0.4633
                      CHANNELS 3 Zrotation Xrotation Yrotation
                      End Site
                      {
                        OFFSET 1.4888 -0.4091 -0.3416
                      }
                    }
                  }
                }
                JOINT LeftHandThumb1
                {
                  OFFSET 1.833 -1.3875 1.3896
                  CHANNELS 3 Zrotation Xrotation Yrotation
                  JOINT LeftHandThumb2
                  {
                    OFFSET 3.4129 -1.121 2.5732
                    CHANNELS 3 Zrotation Xrotation Yrotation
                    JOINT LeftHandThumb3
                    {
                      OFFSET 2.2474 -0.804199 1.6192
                      CHANNELS 3 Zrotation Xrotation Yrotation
                      End Site
                      {
                        OFFSET 1.6527 -0.5689 1.1317
                      }
                    }
                  }
                }
              }
            }
          }
        }
        JOINT RightShoulder
        {
          OFFSET -2.2086 21.1115 7.2329
          CHANNELS 3 Zrotation Xrotation Yrotation
          JOINT RightArm
          {
            OFFSET -13.1216 3.0287 -4.9007
            CHANNELS 3 Zrotation Xrotation Yrotation
            JOINT RightForeArm
            {
              OFFSET -27.4081 -0.0973053 -0.2375
              CHANNELS 3 Zrotation Xrotation Yrotation
              JOINT RightHand
              {
                OFFSET -22.8641 0.0664063 -0.1369
                CHANNELS 3 Zrotation Xrotation Yrotation
                JOINT RightHandIndex1
                {
                  OFFSET -8.8614 0.774994 2.4612
                  CHANNELS 3 Zrotation Xrotation Yrotation
                  JOINT RightHandIndex2
                  {
                    OFFSET -3.3146 -0.808304 0.5841
                    CHANNELS 3 Zrotation Xrotation Yrotation
                    JOINT RightHandIndex3
                    {
                      OFFSET -2.2628 -0.552002 0.3989
                      CHANNELS 3 Zrotation Xrotation Yrotation
                      End Site
                      {
                        OFFSET -1.6102 -0.4807 0.2612
                      }
                    }
                  }
                }
                JOINT RightHandMiddle1
                {
                  OFFSET -8.9937 0.894989 0.2143
                  CHANNELS 3 Zrotation Xrotation Yrotation
                  JOINT RightHandMiddle2
                  {
                    OFFSET -4.0984 0.0113983 -0.0242
                    CHANNELS 3 Zrotation Xrotation Yrotation
                    JOINT RightHandMiddle3
                    {
                      OFFSET -2.2716 0.00691223 -0.0138001
                      CHANNELS 3 Zrotation Xrotation Yrotation
                      End Site
                      {
                        OFFSET -2.0404 -0.1441 0.0027
                      }
                    }
                  }
                }
                JOINT RightHandRing1
                {
                  OFFSET -8.5234 0.597198 -2.0164
                  CHANNELS 3 Zrotation Xrotation Yrotation
                  JOINT RightHandRing2
                  {
                    OFFSET -3.7188 -0.188309 -0.2328
                    CHANNELS 3 Zrotation Xrotation Yrotation
                    JOINT RightHandRing3
                    {
                      OFFSET -2.1191 -0.106598 -0.1332
                      CHANNELS 3 Zrotation Xrotation Yrotation
                      End Site
                      {
                        OFFSET -1.8737 -0.2304 -0.0886
                      }
                    }
                  }
                }
                JOINT RightHandPinky1
                {
                  OFFSET -7.9094 -0.601105 -3.4825
                  CHANNELS 3 Zrotation Xrotation Yrotation
                  JOINT RightHandPinky2
                  {
                    OFFSET -2.2874 -0.477005 -0.6314
                    CHANNELS 3 Zrotation Xrotation Yrotation
                    JOINT RightHandPinky3
                    {
                      OFFSET -1.6774 -0.349396 -0.4633
                      CHANNELS 3 Zrotation Xrotation Yrotation
                      End Site
                      {
                        OFFSET -1.4888 -0.4091 -0.3416
                      }
                    }
                  }
                }
                JOINT RightHandThumb1
                {
                  OFFSET -1.833 -1.38751 1.3896
                  CHANNELS 3 Zrotation Xrotation Yrotation
                  JOINT RightHandThumb2
                  {
                    OFFSET -3.41299 -1.12099 2.5732
                    CHANNELS 3 Zrotation Xrotation Yrotation
                    JOINT RightHandThumb3
                    {
                      OFFSET -2.24741 -0.804108 1.6192
                      CHANNELS 3 Zrotation Xrotation Yrotation
                      End Site
                      {
                        OFFSET -1.6527 -0.5689 1.1317
                      }
                    }
                  }
                }
              }
            }
          }
        }
      }
    }
  }
  JOINT RightUpLeg
  {
    OFFSET -9.1966 3.8861 -0.7581
    CHANNELS 3 Zrotation Xrotation Yrotation
    JOINT RightLeg
    {
      OFFSET -0.7359 -41.0265 0
      CHANNELS 3 Zrotation Xrotation Yrotation
      JOINT RightFoot
      {
        OFFSET 0 -40.2855 0
        CHANNELS 3 Zrotation Xrotation Yrotation
        JOINT RightToeBase
        {
          OFFSET 0 -5.6122 11.7359
          CHANNELS 3 Zrotation Xrotation Yrotation
          End Site
          {
            OFFSET 0 0 7.8731
          }
        }
      }
    }
  }
  JOINT LeftUpLeg
  {
    OFFSET 9.1965 3.8864 -0.7581
    CHANNELS 3 Zrotation Xrotation Yrotation
    JOINT LeftLeg
    {
      OFFSET 0.7359 -41.0268 0
      CHANNELS 3 Zrotation Xrotation Yrotation
      JOINT LeftFoot
      {
        OFFSET 0 -40.2855 0
        CHANNELS 3 Zrotation Xrotation Yrotation
        JOINT LeftToeBase
        {
          OFFSET 0 -5.6122 11.7359
          CHANNELS 3 Zrotation Xrotation Yrotation
          End Site
          {
            OFFSET 0 0 7.8731
          }
        }
      }
    }
  }
}
MOTION
Frames:	4
Frame Time:	0.0333333
39.3419 4.72452 -72.6682 89.9956 11.0232 -179.98 0.899662 0.551875 -0.31299 1.80244 1.09874 -0.63465 1.80247 1.09874 -0.634654 -0.0118223 51.4088 0.000331577 -0.0436785 -0.395901 11.8979 -25.9139 14.412 -53.0851 -30.2826 -21.0183 -11.2869 9.94399 -15.1006 -20.4249 16.1917 -16.7586 -25.2257 -3.50576e-007 2.56897e-007 -8.8587e-008 5.53541e-007 -4.05627e-007 1.39874e-007 -3.96705e-007 2.90699e-007 -1.00243e-007 -3.50576e-007 2.56897e-007 -8.8587e-008 -0.0146263 -9.19384e-005 -2.94301e-006 -3.98023e-007 2.91678e-007 -1.00539e-007 -3.50576e-007 2.56897e-007 -8.8587e-008 -0.0187346 -0.00117436 5.54367e-005 -3.98023e-007 2.91682e-007 -1.00524e-007 -3.50576e-007 2.56897e-007 -8.8587e-008 -0.0122502 -0.00324333 0.000678794 -3.98024e-007 2.91678e-007 -1.00534e-007 -3.50576e-007 2.56897e-007 -8.8587e-008 5.53541e-007 -4.05627e-007 1.39874e-007 -3.96705e-007 2.90699e-007 -1.00243e-007 0.809821 18.5791 18.4114 40.795 28.9676 23.4653 45.3686 -22.8633 109.557 41.8446 -10.7914 4.67166 -3.18055e-015 0 -7.95139e-016 -3.18055e-015 1.59028e-015 -3.57812e-015 -3.18055e-015 0 4.77083e-015 -3.18055e-015 0 -7.95139e-016 0.0149599 -8.96498e-005 -5.14292e-006 3.18055e-015 1.59028e-015 -0 -3.18055e-015 0 -7.95139e-016 0.0189179 -0.00118622 -6.50403e-005 4.8553e-031 -6.36111e-015 4.37326e-015 -3.18055e-015 0 -7.95139e-016 0.0121829 -0.00322635 -0.000674988 -6.36111e-015 1.59028e-015 3.18055e-015 -3.18055e-015 0 -7.95139e-016 -3.18055e-015 1.59028e-015 -3.57812e-015 -3.18055e-015 0 4.77083e-015 0.302985 -22.0031 5.47109 55.7055 45.2962 -48.4139 -6.48209 25.2846 -13.0399 -3.8382e-006 1.10148e-006 8.00968e-007 3.37126 27.0596 -0.0202084 -6.62505 63.427 7.7332 5.49286 7.92763 0.109688 3.97569e-016 -3.97569e-016 2.14936e-015 
39.3419 4.72452 -72.6682 89.9956 11.0232 -179.98 0.900378 0.637654 -0.319346 1.80447 1.27019 -0.64874 1.80447 1.27019 -0.648741 -0.0120899 51.0427 0.000601305 -0.0462751 -0.229235 11.8314 -25.6981 13.8793 -53.0115 -30.6635 -20.9378 -11.4993 9.89899 -15.0867 -20.5716 16.1917 -16.7586 -25.2257 -1.47625e-007 1.08196e-007 -3.71604e-008 9.75377e-008 -7.14869e-008 2.45524e-008 9.71478e-007 -1.07044e-006 -9.45395e-006 -1.47625e-007 1.08196e-007 -3.71604e-008 -0.0146609 -9.11374e-005 -1.09708e-005 9.71655e-007 -1.06923e-006 -9.45409e-006 -1.47625e-007 1.08196e-007 -3.71604e-008 -0.0187277 -0.00117285 5.67204e-005 9.66344e-007 -1.06502e-006 -9.45546e-006 -1.47625e-007 1.08196e-007 -3.71604e-008 -0.0122492 -0.00324244 0.00067603 9.71358e-007 -1.0694e-006 -9.4541e-006 -1.47625e-007 1.08196e-007 -3.71604e-008 9.75377e-008 -7.14869e-008 2.45524e-008 9.71478e-007 -1.07044e-006 -9.45395e-006 0.728312 18.2476 18.4815 40.795 28.9676 23.4653 45.3686 -22.8633 109.557 41.8446 -10.7915 4.67165 0 0 -3.18055e-015 -3.18055e-015 3.18055e-015 1.19271e-015 3.18055e-015 3.18055e-015 3.97569e-015 0 0 -3.18055e-015 0.0149401 -8.8899e-005 -1.74327e-006 -2.64834e-031 4.77083e-015 3.18055e-015 0 0 -3.18055e-015 0.0190635 -0.00118368 -5.41996e-005 -2.03918e-008 -4.30927e-007 -5.49232e-007 0 0 -3.18055e-015 0.0123118 -0.00325702 -0.000673309 3.18055e-015 -1.59028e-015 1.19271e-015 0 0 -3.18055e-015 -3.18055e-015 3.18055e-015 1.19271e-015 3.18055e-015 3.18055e-015 3.97569e-015 0.302985 -22.0031 5.47109 55.7055 45.2962 -48.4139 -6.48209 25.2846 -13.0399 -3.8382e-006 1.10148e-006 8.00968e-007 3.37126 27.0596 -0.0202084 -6.62505 63.427 7.7332 5.49286 7.92763 0.109688 3.97569e-016 -3.97569e-016 2.14936e-015 
39.3419 4.72452 -72.6682 89.9956 11.0232 -179.98 0.901234 0.723544 -0.325713 1.80678 1.44183 -0.662852 1.80677 1.44183 -0.662851 -0.0115115 50.6762 0.000144191 -0.0487031 -0.0625609 11.7649 -25.482 13.3466 -52.936 -31.0439 -20.8559 -11.7112 9.85419 -15.0722 -20.7182 16.1917 -16.7586 -25.2257 1.89821e-007 -1.39146e-007 4.75998e-008 -4.37643e-007 3.2081e-007 -1.09744e-007 -1.58184e-007 1.15955e-007 -3.96665e-008 1.89821e-007 -1.39146e-007 4.75998e-008 -0.0145991 -8.83098e-005 7.15459e-006 -1.58184e-007 1.1596e-007 -3.96516e-008 1.89821e-007 -1.39146e-007 4.75998e-008 -0.0187624 -0.0011751 6.81508e-005 -1.58184e-007 1.15962e-007 -3.96459e-008 1.89821e-007 -1.39146e-007 4.75998e-008 -0.0122617 -0.00324656 0.000672899 -1.58185e-007 1.1596e-007 -3.96496e-008 1.89821e-007 -1.39146e-007 4.75998e-008 -4.37643e-007 3.2081e-007 -1.09744e-007 -1.58184e-007 1.15955e-007 -3.96665e-008 0.647297 17.916 18.5511 40.795 28.9676 23.4653 45.3686 -22.8633 109.557 41.8446 -10.7914 4.67166 3.18055e-015 -3.18055e-015 1.19271e-015 6.36111e-015 0 1.19271e-015 3.18055e-015 3.18055e-015 -1.98785e-015 3.18055e-015 -3.18055e-015 1.19271e-015 0.0149584 -9.00501e-005 -6.73891e-006 0 0 -5.1684e-015 3.18055e-015 -3.18055e-015 1.19271e-015 0.0190706 -0.00119662 -6.08322e-005 3.18055e-015 0 -2.38542e-015 3.18055e-015 -3.18055e-015 1.19271e-015 0.0122589 -0.00323934 -0.000673914 -3.18055e-015 -3.18055e-015 1.19271e-015 3.18055e-015 -3.18055e-015 1.19271e-015 6.36111e-015 0 1.19271e-015 3.18055e-015 3.18055e-015 -1.98785e-015 0.302985 -22.0031 5.47109 55.7055 45.2962 -48.4139 -6.48209 25.2846 -13.0399 -3.8382e-006 1.10148e-006 8.00968e-007 3.37126 27.0596 -0.0202084 -6.62505 63.427 7.7332 5.49286 7.92763 0.109688 3.97569e-016 -3.97569e-016 2.14936e-015 
39.3419 4.72452 -72.6682 89.9956 11.0232 -179.98 0.902009 0.809525 -0.332071 1.80895 1.61364 -0.676946 1.80894 1.61365 -0.67695 -0.0122593 50.3102 0.000781618 -0.0509288 0.104135 11.6983 -25.2656 12.8137 -52.8585 -31.4239 -20.7727 -11.9223 9.80993 -15.0562 -20.8646 16.1917 -16.7586 -25.2257 -2.65821e-007 6.61778e-007 -2.74195e-006 -9.47041e-007 2.2744e-007 2.43898e-006 6.89788e-007 -8.56463e-007 -9.5248e-006 -2.65821e-007 6.61778e-007 -2.74195e-006 -0.0145682 -8.85476e-005 8.2244e-007 6.89964e-007 -8.55251e-007 -9.52491e-006 -2.65821e-007 6.61778e-007 -2.74195e-006 -0.0187183 -0.0011729 5.52842e-005 6.89925e-007 -8.54893e-007 -9.52495e-006 -2.65821e-007 6.61778e-007 -2.74195e-006 -0.0122879 -0.00325188 0.000671558 6.89667e-007 -8.55405e-007 -9.52492e-006 -2.65821e-007 6.61778e-007 -2.74195e-006 -9.47041e-007 2.2744e-007 2.43898e-006 6.89788e-007 -8.56463e-007 -9.5248e-006 0.566757 17.5841 18.6201 40.795 28.9676 23.4653 45.3686 -22.8633 109.557 41.8446 -10.7915 4.67166 6.36111e-015 1.59028e-015 -4.37326e-015 3.18055e-015 0 -3.97569e-016 3.18055e-015 1.59028e-015 -2.78299e-015 6.36111e-015 1.59028e-015 -4.37326e-015 0.0149554 -9.57986e-005 -2.96101e-006 -6.36111e-015 0 -6.36111e-015 6.36111e-015 1.59028e-015 -4.37326e-015 0.0190422 -0.00118301 -5.32697e-005 -3.18055e-015 0 -3.97569e-015 6.36111e-015 1.59028e-015 -4.37326e-015 0.0122412 -0.00324431 -0.000679247 3.18055e-015 0 6.75868e-015 6.36111e-015 1.59028e-015 -4.37326e-015 3.18055e-015 0 -3.97569e-016 3.18055e-015 1.59028e-015 -2.78299e-015 0.302985 -22.0031 5.47109 55.7055 45.2962 -48.4139 -6.48209 25.2846 -13.0399 -3.8382e-006 1.10148e-006 8.00968e-007 3.37126 27.0596 -0.0202084 -6.62505 63.427 7.7332 5.49286 7.92763 0.109688 3.97569e-016 -3.97569e-016 2.14936e-015 
